name Walk9.mot
datacolumns 19
datarows 20
range 1.37000000 1.38900000
endheader

                time	   L_ground_force_vx	   L_ground_force_vy	   L_ground_force_vz	   L_ground_force_px	   L_ground_force_py	   L_ground_force_pz	   R_ground_force_vx	   R_ground_force_vy	   R_ground_force_vz	   R_ground_force_px	   R_ground_force_py	   R_ground_force_pz	   L_ground_torque_x	   L_ground_torque_y	   L_ground_torque_z	   R_ground_torque_x	   R_ground_torque_y	   R_ground_torque_z	
          1.37000000	         -6.06241539	         88.30072408	         -7.83548798	         -0.00098531	          0.00000000	          0.00170891	         -0.00000014	          0.00000120	          0.00000005	          0.00000000	          0.00000000	          0.00000000	          0.00000000	          0.19412005	          0.00000000	          0.00000000	         -0.00000002	          0.00000000	
          1.37100000	         -6.99912644	         96.15727866	         -8.44837042	         -0.01601370	          0.00000000	         -0.00069814	         -0.00000014	          0.00000126	          0.00000005	          0.00000000	          0.00000000	          0.00000000	          0.00000000	          0.20780445	          0.00000000	          0.00000000	         -0.00000002	          0.00000000	
          1.37200000	         -7.97474170	        104.28421054	         -9.07701589	         -0.03099868	          0.00000000	         -0.00309707	         -0.00000015	          0.00000132	          0.00000005	          0.00000000	          0.00000000	          0.00000000	          0.00000000	          0.22180909	          0.00000000	          0.00000000	         -0.00000002	          0.00000000	
          1.37300000	         -8.98925667	        112.67441341	         -9.72042700	         -0.04590359	          0.00000000	         -0.00548209	         -0.00000016	          0.00000138	          0.00000005	          0.00000000	          0.00000000	          0.00000000	          0.00000000	          0.23610787	          0.00000000	          0.00000000	         -0.00000002	          0.00000000	
          1.37400000	        -10.04254211	        121.31915140	        -10.37746463	         -0.06069127	          0.00000000	         -0.00784737	         -0.00000016	          0.00000145	          0.00000006	          0.00000000	          0.00000000	          0.00000000	          0.00000000	          0.25067123	          0.00000000	          0.00000000	         -0.00000002	          0.00000000	
          1.37500000	        -11.13432820	        130.20792830	        -11.04683785	         -0.07532386	          0.00000000	         -0.01018699	         -0.00000017	          0.00000151	          0.00000006	          0.00000000	          0.00000000	          0.00000000	          0.00000000	          0.26546592	          0.00000000	          0.00000000	         -0.00000003	          0.00000000	
          1.37600000	        -12.26419295	        139.32836855	        -11.72709525	         -0.08976289	          0.00000000	         -0.01249497	         -0.00000018	          0.00000157	          0.00000006	          0.00000000	          0.00000000	          0.00000000	          0.00000000	          0.28045481	          0.00000000	          0.00000000	         -0.00000003	          0.00000000	
          1.37700000	        -13.43156774	        148.66615819	        -12.41662142	         -0.10397047	          0.00000000	         -0.01476545	         -0.00000018	          0.00000164	          0.00000006	          0.00000000	          0.00000000	          0.00000000	          0.00000000	          0.29559676	          0.00000000	          0.00000000	         -0.00000003	          0.00000000	
          1.37800000	        -14.63576445	        158.20508471	        -13.11363796	         -0.11791114	          0.00000000	         -0.01699302	         -0.00000019	          0.00000170	          0.00000006	          0.00000000	          0.00000000	          0.00000000	          0.00000000	          0.31084670	          0.00000000	          0.00000000	         -0.00000003	          0.00000000	
          1.37900000	        -15.87601215	        167.92717150	        -13.81620267	         -0.13155307	          0.00000000	         -0.01917295	         -0.00000019	          0.00000176	          0.00000007	          0.00000000	          0.00000000	          0.00000000	          0.00000000	          0.32615588	          0.00000000	          0.00000000	         -0.00000003	          0.00000000	
          1.38000000	        -17.15149355	        177.81289950	        -14.52220288	         -0.14486821	          0.00000000	         -0.02130115	         -0.00000020	          0.00000182	          0.00000007	          0.00000000	          0.00000000	          0.00000000	          0.00000000	          0.34147238	          0.00000000	          0.00000000	         -0.00000003	          0.00000000	
          1.38100000	        -18.46137987	        187.84152291	        -15.22934420	         -0.15783205	          0.00000000	         -0.02337420	         -0.00000020	          0.00000187	          0.00000007	          0.00000000	          0.00000000	          0.00000000	          0.00000000	          0.35674182	          0.00000000	          0.00000000	         -0.00000003	          0.00000000	
          1.38200000	        -19.80486110	        197.99146935	        -15.93513758	         -0.17042347	          0.00000000	         -0.02538925	         -0.00000021	          0.00000193	          0.00000007	          0.00000000	          0.00000000	          0.00000000	          0.00000000	          0.37190816	          0.00000000	          0.00000000	         -0.00000003	          0.00000000	
          1.38300000	        -21.18116589	        208.24078999	        -16.63688834	         -0.18262448	          0.00000000	         -0.02734396	         -0.00000021	          0.00000198	          0.00000007	          0.00000000	          0.00000000	          0.00000000	          0.00000000	          0.38691450	          0.00000000	          0.00000000	         -0.00000003	          0.00000000	
          1.38400000	        -22.58956742	        218.56761215	        -17.33169173	         -0.19442008	          0.00000000	         -0.02923652	         -0.00000022	          0.00000203	          0.00000008	          0.00000000	          0.00000000	          0.00000000	          0.00000000	          0.40170362	          0.00000000	          0.00000000	         -0.00000003	          0.00000000	
          1.38500000	        -24.02937431	        228.95054558	        -18.01643897	         -0.20579804	          0.00000000	         -0.03106557	         -0.00000022	          0.00000207	          0.00000008	          0.00000000	          0.00000000	          0.00000000	          0.00000000	          0.41621818	          0.00000000	          0.00000000	         -0.00000003	          0.00000000	
          1.38600000	        -25.49990950	        239.36900558	        -18.68783569	         -0.21674871	          0.00000000	         -0.03283012	         -0.00000022	          0.00000211	          0.00000008	          0.00000000	          0.00000000	          0.00000000	          0.00000000	          0.43040062	          0.00000000	          0.00000000	         -0.00000003	          0.00000000	
          1.38700000	        -27.00048154	        249.80343500	        -19.34243264	         -0.22726485	          0.00000000	         -0.03452961	         -0.00000023	          0.00000214	          0.00000008	          0.00000000	          0.00000000	          0.00000000	          0.00000000	          0.44419284	          0.00000000	          0.00000000	         -0.00000003	          0.00000000	
          1.38800000	        -28.53035355	        260.23542705	        -19.97666602	         -0.23734144	          0.00000000	         -0.03616380	         -0.00000023	          0.00000217	          0.00000008	          0.00000000	          0.00000000	          0.00000000	          0.00000000	          0.45753596	          0.00000000	          0.00000000	         -0.00000004	          0.00000000	
          1.38900000	        -30.08871365	        270.64776588	        -20.58690422	         -0.24697553	          0.00000000	         -0.03773278	         -0.00000023	          0.00000219	          0.00000008	          0.00000000	          0.00000000	          0.00000000	          0.00000000	          0.47037005	          0.00000000	          0.00000000	         -0.00000004	          0.00000000	
